<?xml version="1.0" standalone="no"?><svg xmlns="http://www.w3.org/2000/svg" viewBox="0 0 1440 320"><path fill="#00000" fill-opacity="1" d="M0,256L30,266.7C60,277,120,299,180,277.3C240,256,300,192,360,170.7C420,149,480,171,540,197.3C600,224,660,256,720,250.7C780,245,840,203,900,186.7C960,171,1020,181,1080,186.7C1140,192,1200,192,1260,186.7C1320,181,1380,171,1410,165.3L1440,160L1440,320L1410,320C1380,320,1320,320,1260,320C1200,320,1140,320,1080,320C1020,320,960,320,900,320C840,320,780,320,720,320C660,320,600,320,540,320C480,320,420,320,360,320C300,320,240,320,180,320C120,320,60,320,30,320L0,320Z"></path></svg>